<svg width="173" height="159" viewBox="0 0 173 159" fill="none" xmlns="http://www.w3.org/2000/svg">
<path d="M21.8174 137.723C21.8174 137.088 21.7035 136.494 21.4756 135.94C21.264 135.387 20.8978 134.866 20.377 134.378C19.8398 133.906 19.14 133.475 18.2773 133.084C17.431 132.677 16.373 132.303 15.1035 131.961C13.1341 131.424 11.4007 130.773 9.90332 130.008C8.4222 129.243 7.20964 128.405 6.26562 127.493C5.32161 126.582 4.60547 125.573 4.11719 124.466C3.64518 123.359 3.40918 122.155 3.40918 120.853C3.40918 119.355 3.72656 117.996 4.36133 116.775C4.99609 115.555 5.875 114.513 6.99805 113.65C8.12109 112.788 9.44759 112.129 10.9775 111.673C12.5075 111.201 14.1676 110.965 15.958 110.965C17.8135 110.965 19.5062 111.233 21.0361 111.771C22.5824 112.308 23.9089 113.056 25.0156 114.017C26.1224 114.993 26.985 116.149 27.6035 117.483C28.222 118.818 28.5312 120.283 28.5312 121.878H21.8418C21.8092 121.08 21.6628 120.348 21.4023 119.681C21.1582 119.013 20.792 118.436 20.3037 117.947C19.7992 117.475 19.1725 117.109 18.4238 116.849C17.6914 116.572 16.8288 116.434 15.8359 116.434C14.9245 116.434 14.1107 116.548 13.3945 116.775C12.6947 116.987 12.1006 117.288 11.6123 117.679C11.124 118.086 10.7497 118.566 10.4893 119.119C10.2451 119.656 10.123 120.242 10.123 120.877C10.123 121.544 10.2858 122.146 10.6113 122.684C10.9531 123.221 11.4414 123.701 12.0762 124.124C12.7109 124.563 13.4759 124.962 14.3711 125.32C15.2826 125.678 16.3079 126.012 17.4473 126.321C18.668 126.663 19.8317 127.078 20.9385 127.566C22.0452 128.055 23.0625 128.616 23.9902 129.251C25.39 130.293 26.5049 131.505 27.335 132.889C28.165 134.272 28.5801 135.867 28.5801 137.674C28.5801 139.236 28.2627 140.628 27.6279 141.849C27.0094 143.053 26.1468 144.07 25.04 144.9C23.9333 145.747 22.6149 146.39 21.085 146.829C19.555 147.252 17.8867 147.464 16.0801 147.464C14.306 147.464 12.5482 147.203 10.8066 146.683C9.08138 146.146 7.57585 145.364 6.29004 144.339C5.06934 143.33 4.10091 142.142 3.38477 140.774C2.6849 139.407 2.33496 137.804 2.33496 135.965H9.07324C9.10579 137.039 9.29297 137.959 9.63477 138.724C9.97656 139.489 10.4567 140.115 11.0752 140.604C11.6774 141.092 12.4017 141.45 13.248 141.678C14.1107 141.906 15.0547 142.02 16.0801 142.02C16.9915 142.02 17.7972 141.914 18.4971 141.702C19.2132 141.491 19.8154 141.198 20.3037 140.823C20.792 140.449 21.1663 140.001 21.4268 139.48C21.6872 138.943 21.8174 138.357 21.8174 137.723ZM44.585 114.114V120.584H54.4482V125.589H44.585V136.941C44.585 137.902 44.6908 138.707 44.9023 139.358C45.1302 139.993 45.4476 140.498 45.8545 140.872C46.2614 141.263 46.7497 141.539 47.3193 141.702C47.9053 141.865 48.5563 141.946 49.2725 141.946C49.7933 141.946 50.3223 141.922 50.8594 141.873C51.4128 141.824 51.9417 141.759 52.4463 141.678C52.9346 141.613 53.3903 141.539 53.8135 141.458C54.2529 141.377 54.6273 141.295 54.9365 141.214L55.5957 145.877C55.1237 146.154 54.5703 146.398 53.9355 146.609C53.3008 146.805 52.6253 146.967 51.9092 147.098C51.193 147.228 50.4443 147.326 49.6631 147.391C48.8981 147.472 48.1413 147.513 47.3926 147.513C45.944 147.513 44.6257 147.326 43.4375 146.951C42.2656 146.561 41.2646 145.958 40.4346 145.145C39.5882 144.347 38.9372 143.33 38.4814 142.093C38.0257 140.84 37.7979 139.342 37.7979 137.601V125.589H31.7676V120.584H37.7979V114.114H44.585ZM77.167 147C77.0042 146.674 76.8659 146.3 76.752 145.877C76.638 145.454 76.5404 145.006 76.459 144.534C76.0846 144.941 75.6533 145.324 75.165 145.682C74.6768 146.04 74.1396 146.349 73.5537 146.609C72.9515 146.886 72.2923 147.098 71.5762 147.244C70.86 147.407 70.0869 147.488 69.2568 147.488C67.9059 147.488 66.6608 147.293 65.5215 146.902C64.3984 146.512 63.43 145.966 62.6162 145.267C61.8024 144.567 61.1676 143.737 60.7119 142.776C60.2562 141.8 60.0283 140.742 60.0283 139.603C60.0283 138.138 60.3132 136.844 60.8828 135.721C61.4525 134.581 62.307 133.646 63.4463 132.913C64.4717 132.246 65.7331 131.741 67.2305 131.399C68.7441 131.041 70.4775 130.862 72.4307 130.862H76.2148V129.3C76.2148 128.681 76.1172 128.128 75.9219 127.64C75.7266 127.135 75.4336 126.704 75.043 126.346C74.6361 125.971 74.1234 125.687 73.5049 125.491C72.9027 125.28 72.1947 125.174 71.3809 125.174C70.6647 125.174 70.0462 125.263 69.5254 125.442C69.0046 125.605 68.5814 125.841 68.2559 126.15C67.9629 126.427 67.7432 126.761 67.5967 127.151C67.4665 127.542 67.4014 127.973 67.4014 128.445H60.6143C60.6143 127.322 60.8584 126.256 61.3467 125.247C61.8512 124.238 62.5837 123.351 63.5439 122.586C64.488 121.821 65.6436 121.219 67.0107 120.779C68.3942 120.324 69.973 120.096 71.7471 120.096C73.3421 120.096 74.8232 120.291 76.1904 120.682C77.5739 121.072 78.7702 121.65 79.7793 122.415C80.7884 123.18 81.5778 124.148 82.1475 125.32C82.7171 126.476 83.002 127.819 83.002 129.349V140.677C83.002 142.093 83.0915 143.265 83.2705 144.192C83.4495 145.12 83.71 145.918 84.0518 146.585V147H77.167ZM70.6973 142.239C71.3809 142.239 72.0156 142.158 72.6016 141.995C73.1875 141.832 73.7165 141.621 74.1885 141.36C74.6605 141.1 75.0674 140.807 75.4092 140.481C75.751 140.14 76.0195 139.798 76.2148 139.456V134.915H72.748C71.6901 134.915 70.7868 135.021 70.0381 135.232C69.2894 135.428 68.679 135.704 68.207 136.062C67.735 136.437 67.3851 136.884 67.1572 137.405C66.9294 137.91 66.8154 138.463 66.8154 139.065C66.8154 139.537 66.8968 139.977 67.0596 140.384C67.2386 140.774 67.4909 141.108 67.8164 141.385C68.1419 141.645 68.5407 141.857 69.0127 142.02C69.501 142.166 70.0625 142.239 70.6973 142.239ZM100.887 142.068C101.554 142.068 102.189 141.971 102.791 141.775C103.393 141.58 103.922 141.303 104.378 140.945C104.834 140.587 105.184 140.156 105.428 139.651C105.688 139.147 105.802 138.585 105.77 137.967H112.166C112.199 139.334 111.914 140.604 111.312 141.775C110.726 142.947 109.92 143.956 108.895 144.803C107.869 145.649 106.673 146.316 105.306 146.805C103.955 147.277 102.522 147.513 101.009 147.513C98.958 147.513 97.1595 147.171 95.6133 146.487C94.0671 145.787 92.7812 144.835 91.7559 143.631C90.7142 142.426 89.9248 141.019 89.3877 139.407C88.8669 137.78 88.6064 136.038 88.6064 134.183V133.45C88.6064 131.595 88.8669 129.861 89.3877 128.25C89.9085 126.622 90.6898 125.206 91.7314 124.002C92.7731 122.798 94.0589 121.845 95.5889 121.146C97.1351 120.446 98.9255 120.096 100.96 120.096C102.588 120.096 104.093 120.34 105.477 120.828C106.86 121.316 108.056 122 109.065 122.879C110.058 123.774 110.831 124.856 111.385 126.126C111.938 127.379 112.199 128.787 112.166 130.35H105.77C105.802 129.699 105.704 129.08 105.477 128.494C105.249 127.908 104.915 127.404 104.476 126.98C104.036 126.557 103.507 126.224 102.889 125.979C102.27 125.719 101.595 125.589 100.862 125.589C99.7881 125.589 98.901 125.809 98.2012 126.248C97.5013 126.688 96.9479 127.273 96.541 128.006C96.1178 128.738 95.8167 129.576 95.6377 130.521C95.4749 131.465 95.3936 132.441 95.3936 133.45V134.183C95.3936 135.208 95.4749 136.201 95.6377 137.161C95.8005 138.105 96.0934 138.935 96.5166 139.651C96.9235 140.384 97.4769 140.97 98.1768 141.409C98.8929 141.849 99.7962 142.068 100.887 142.068ZM127.658 136.087L124.582 138.943V147H117.795V109.5H124.582V130.936L126.633 128.592L133.933 120.584H142.087L132.126 131.595L143.479 147H135.153L127.658 136.087ZM150.426 157.669C149.775 157.669 149.205 157.628 148.717 157.547C148.245 157.465 147.716 157.343 147.13 157.181L147.96 152.005C148.237 152.005 148.587 152.013 149.01 152.029C149.449 152.062 149.799 152.078 150.06 152.078C150.597 152.078 151.069 151.907 151.476 151.565C151.899 151.24 152.257 150.882 152.55 150.491C152.843 150.101 153.054 149.808 153.185 149.612C153.331 149.417 153.502 149.14 153.697 148.782L155.26 145.877L144.078 120.584H151.5L157.555 136.062L158.287 138.748L159.288 136.111L165.318 120.584H172.813L159.41 150.955C159.117 151.622 158.735 152.347 158.263 153.128C157.807 153.909 157.229 154.633 156.529 155.301C155.829 155.968 154.975 156.53 153.966 156.985C152.973 157.441 151.793 157.669 150.426 157.669Z" fill="white"/>
<rect x="46.6" y="68" width="86.4" height="26" rx="10" fill="#606060"/>
<rect x="25" y="34" width="86.4" height="26" rx="10" fill="#969696"/>
<rect x="46.6" width="86.4" height="26" rx="10" fill="white"/>
</svg>
